<svg width="462" height="462" viewBox="0 0 462 462" fill="none" xmlns="http://www.w3.org/2000/svg">
<path d="M271.477 295.853C289.524 295.853 305.665 281.878 305.665 261.781C305.665 237.757 290.448 226.264 272.17 226.264C255.25 226.264 238.444 237.439 238.444 261.203C238.444 284.794 254.123 295.853 271.477 295.853V295.853Z" fill="#F9C80E"/>
<path d="M101.062 0C104.892 0 108.564 1.52109 111.271 4.22865C113.979 6.9362 115.5 10.6084 115.5 14.4375V28.875H346.5V14.4375C346.5 10.6084 348.021 6.9362 350.729 4.22865C353.436 1.52109 357.108 0 360.938 0C364.767 0 368.439 1.52109 371.146 4.22865C373.854 6.9362 375.375 10.6084 375.375 14.4375V28.875H404.25C419.566 28.875 434.255 34.9594 445.085 45.7896C455.916 56.6198 462 71.3087 462 86.625V404.25C462 419.566 455.916 434.255 445.085 445.085C434.255 455.916 419.566 462 404.25 462H57.75C42.4337 462 27.7448 455.916 16.9146 445.085C6.08436 434.255 0 419.566 0 404.25V86.625C0 71.3087 6.08436 56.6198 16.9146 45.7896C27.7448 34.9594 42.4337 28.875 57.75 28.875H86.625V14.4375C86.625 10.6084 88.1461 6.9362 90.8536 4.22865C93.5612 1.52109 97.2334 0 101.062 0V0ZM388.484 86.625H73.4869C64.8244 86.625 57.75 93.093 57.75 101.062V129.938C57.75 137.907 64.7955 144.375 73.4869 144.375H388.513C397.176 144.375 404.25 137.907 404.25 129.938V101.062C404.25 93.093 397.205 86.625 388.484 86.625ZM269.577 369.311C305.902 369.311 327.327 338.502 327.327 286.382C327.327 230.538 304.776 209.344 270.934 209.344C244.196 209.344 219.046 228.748 219.046 261.579C219.046 295.074 242.839 312.687 267.44 312.687C288.981 312.687 302.957 301.83 307.374 289.876H308.154C308.038 327.876 294.843 352.362 270.472 352.362C251.299 352.362 241.366 339.368 240.153 328.684H220.403C221.76 347.164 237.555 369.282 269.577 369.282V369.311ZM186.128 212.376H167.85C154.751 219.343 142.089 227.106 129.938 235.62V255.688C140.766 248.267 157.917 237.786 166.262 233.252H166.609V366.366H186.099V212.347L186.128 212.376Z" fill="#F9C80E"/>
</svg>
