<svg width="393" height="405" viewBox="0 0 393 405" fill="none" xmlns="http://www.w3.org/2000/svg">
<path fill-rule="evenodd" clip-rule="evenodd" d="M115.488 1.215C136.442 0.220909 143.123 0 196.5 0C249.877 0 256.558 0.239318 277.494 1.215C298.43 2.19068 312.721 5.63318 325.225 10.622C338.319 15.7214 350.199 23.6925 360.024 34.0016C370.027 44.1082 377.744 56.3318 382.675 69.8441C387.534 82.7305 390.856 97.4577 391.821 118.996C392.786 140.627 393 147.512 393 202.5C393 257.506 392.768 264.391 391.821 285.985C390.874 307.524 387.534 322.251 382.675 335.137C377.744 348.651 370.014 360.895 360.024 371.017C350.199 381.326 338.319 389.279 325.225 394.36C312.721 399.367 298.43 402.791 277.529 403.785C256.558 404.779 249.877 405 196.5 405C143.123 405 136.442 404.761 115.488 403.785C94.588 402.809 80.297 399.367 67.7925 394.36C54.6792 389.278 42.7981 381.312 32.9763 371.017C22.9794 360.904 15.2433 348.666 10.3073 335.156C5.46627 322.27 2.14364 307.542 1.179 286.004C0.214363 264.373 0 257.488 0 202.5C0 147.494 0.232227 140.609 1.179 119.033C2.12577 97.4577 5.46627 82.7305 10.3073 69.8441C15.2506 56.3333 22.9926 44.0955 32.9941 33.9832C42.802 23.6833 54.6712 15.7111 67.7746 10.622C80.2792 5.63318 94.5701 2.20909 115.471 1.215H115.488ZM275.904 37.665C255.182 36.6893 248.965 36.4868 196.5 36.4868C144.034 36.4868 137.818 36.6893 117.096 37.665C97.9285 38.567 87.5318 41.8623 80.6007 44.642C71.4367 48.3239 64.8807 52.6868 58.0032 59.7743C51.4838 66.3105 46.4665 74.2675 43.3193 83.0618C40.6219 90.2045 37.4243 100.919 36.549 120.672C35.6022 142.026 35.4057 148.432 35.4057 202.5C35.4057 256.567 35.6022 262.974 36.549 284.328C37.4243 304.081 40.6219 314.795 43.3193 321.938C46.4633 330.719 51.483 338.69 58.0032 345.226C64.3448 351.945 72.0798 357.118 80.6007 360.358C87.5318 363.138 97.9285 366.433 117.096 367.335C137.818 368.311 144.017 368.513 196.5 368.513C248.983 368.513 255.182 368.311 275.904 367.335C295.072 366.433 305.468 363.138 312.399 360.358C321.563 356.676 328.119 352.313 334.997 345.226C341.517 338.69 346.537 330.719 349.681 321.938C352.378 314.795 355.576 304.081 356.451 284.328C357.398 262.974 357.594 256.567 357.594 202.5C357.594 148.432 357.398 142.026 356.451 120.672C355.576 100.919 352.378 90.2045 349.681 83.0618C346.108 73.618 341.874 66.8618 334.997 59.7743C328.654 53.0563 320.933 47.8859 312.399 44.642C305.468 41.8623 295.072 38.567 275.904 37.665V37.665ZM171.402 264.925C185.418 270.938 201.026 271.75 215.559 267.221C230.092 262.693 242.649 253.105 251.084 240.096C259.52 227.087 263.311 211.463 261.81 195.893C260.31 180.323 253.61 165.773 242.856 154.728C236.001 147.668 227.712 142.262 218.585 138.899C209.459 135.537 199.723 134.301 190.078 135.281C180.433 136.262 171.118 139.434 162.806 144.569C154.493 149.704 147.388 156.675 142.003 164.98C136.619 173.284 133.087 182.716 131.664 192.595C130.241 202.475 130.961 212.557 133.773 222.115C136.584 231.674 141.417 240.471 147.924 247.873C154.43 255.276 162.449 261.1 171.402 264.925ZM125.081 128.9C134.46 119.235 145.594 111.568 157.848 106.338C170.102 101.107 183.236 98.4145 196.5 98.4145C209.764 98.4145 222.898 101.107 235.152 106.338C247.406 111.568 258.54 119.235 267.919 128.9C277.298 138.566 284.737 150.04 289.813 162.668C294.889 175.296 297.501 188.831 297.501 202.5C297.501 216.169 294.889 229.704 289.813 242.332C284.737 254.96 277.298 266.434 267.919 276.1C248.977 295.619 223.287 306.585 196.5 306.585C169.713 306.585 144.023 295.619 125.081 276.1C106.14 256.58 95.4985 230.105 95.4985 202.5C95.4985 174.895 106.14 148.42 125.081 128.9V128.9ZM319.902 113.915C322.226 111.656 324.087 108.939 325.374 105.925C326.661 102.912 327.348 99.6626 327.394 96.3703C327.441 93.078 326.846 89.8096 325.645 86.7585C324.444 83.7075 322.661 80.9358 320.401 78.6075C318.142 76.2793 315.453 74.4419 312.492 73.2041C309.531 71.9663 306.36 71.3532 303.165 71.4012C299.97 71.4492 296.817 72.1573 293.893 73.4835C290.969 74.8097 288.332 76.7272 286.14 79.1223C281.876 83.7803 279.541 89.9675 279.632 96.3703C279.723 102.773 282.231 108.888 286.625 113.416C291.019 117.943 296.952 120.529 303.165 120.622C309.378 120.715 315.382 118.31 319.902 113.915V113.915Z" fill="#CCCCCC"/>
</svg>
