<svg width="357" height="294" viewBox="0 0 357 294" fill="none" xmlns="http://www.w3.org/2000/svg">
<path d="M320.323 73.2698C320.559 76.4931 320.559 79.6979 320.559 82.9028C320.559 180.983 246.932 294 112.375 294C70.9204 294 32.4083 281.825 0 260.681C5.88581 261.362 11.5536 261.601 17.6756 261.601C50.6106 261.682 82.6129 250.516 108.524 229.903C93.2542 229.623 78.4516 224.514 66.1834 215.292C53.9151 206.069 44.7937 193.192 40.0926 178.459C44.6159 179.141 49.1574 179.601 53.917 179.601C60.4749 179.601 67.0692 178.68 73.1912 177.078C56.6193 173.685 41.7179 164.578 31.0208 151.304C20.3236 138.03 14.491 121.41 14.5147 104.269V103.348C24.2699 108.855 35.5874 112.299 47.577 112.76C37.5328 105.992 29.2968 96.8093 23.6039 86.0301C17.911 75.2509 14.9382 63.2105 14.9507 50.9831C14.9507 37.2059 18.5657 24.5706 24.9057 13.5562C43.2923 36.4879 66.2245 55.2482 92.2172 68.622C118.21 81.9957 146.683 89.6848 175.793 91.1912C174.667 85.6656 173.977 79.9374 173.977 74.1907C173.972 64.4465 175.861 54.7968 179.537 45.7934C183.212 36.79 188.602 28.6094 195.398 21.7192C202.194 14.829 210.262 9.3643 219.142 5.63758C228.022 1.91086 237.539 -0.0048327 247.15 9.15528e-06C268.222 9.15528e-06 287.242 8.95151 300.612 23.4286C316.994 20.2167 332.704 14.1534 347.045 5.50721C341.584 22.6517 330.146 37.1894 314.873 46.3968C329.402 44.7166 343.601 40.8427 357 34.9035C346.993 49.6956 334.593 62.6669 320.323 73.2698V73.2698Z" fill="#CCCCCC"/>
</svg>
