<svg width="555" height="396" viewBox="0 0 555 396" fill="none" xmlns="http://www.w3.org/2000/svg">
<path d="M555 105.336L284.636 0H270.364L0 105.336V277.2H39.6429V158.4L131.218 194.04C110.989 222.816 100.061 257.086 99.9 292.248C99.5036 296.604 99.5036 300.96 99.9 305.316V309.672L111 325.512L268.779 396H285.032L441.225 324.324L452.325 308.484V291.06C452.101 256.091 441.324 222.003 421.404 193.248L555 141.372V105.336ZM415.457 290.664V293.436L277.5 356.4L138.75 293.04C138.565 292.259 138.565 291.445 138.75 290.664C138.966 260.143 149.436 230.579 168.482 206.712L270.761 246.312H285.032L386.518 206.712C405.39 230.622 415.591 260.216 415.457 290.664ZM277.5 207.9L60.2571 123.552L277.5 39.6L494.743 124.344L277.5 207.9Z" fill="#F9C80E"/>
</svg>
