<svg width="462" height="451" viewBox="0 0 462 451" fill="none" xmlns="http://www.w3.org/2000/svg">
<path d="M416.927 338.25C441.717 338.25 462 317.955 462 293.15V45.1C462 20.295 441.717 0 416.927 0H180.293C187.054 13.53 191.561 29.315 191.561 45.1H416.927V293.15H214.098V338.25H416.927ZM304.244 112.75V157.85H169.024V451H123.951V315.7H78.878V451H33.8049V270.6H0V157.85C0 133.045 20.2829 112.75 45.0732 112.75H304.244ZM146.488 45.1C146.488 69.905 126.205 90.2 101.415 90.2C76.6244 90.2 56.3415 69.905 56.3415 45.1C56.3415 20.295 76.6244 0 101.415 0C126.205 0 146.488 20.295 146.488 45.1ZM349.317 90.2H394.39V270.6H349.317V90.2ZM281.707 180.4H326.78V270.6H281.707V180.4ZM214.098 180.4H259.171V270.6H214.098V180.4Z" fill="#F9C80E"/>
</svg>
