<svg width="814" height="814" viewBox="0 0 814 814" fill="none" xmlns="http://www.w3.org/2000/svg">
<g filter="url(#filter0_d_5_479)">
<circle cx="407" cy="403" r="398" fill="#00E676"/>
<path d="M316.716 536.548L322.62 539.561C347.223 554.621 374.775 561.649 402.329 561.649C488.926 561.649 559.778 489.359 559.778 401.004C559.778 358.836 543.048 317.67 513.527 287.549C484.005 257.427 444.642 240.36 402.329 240.36C315.733 240.36 244.88 312.65 245.864 402.009C245.864 432.129 254.721 461.247 269.481 486.346L273.417 492.372L257.673 551.61L316.716 536.548Z" fill="#00E676"/>
<path d="M530.257 271.484C496.799 236.344 450.549 217.267 403.314 217.267C302.942 217.267 222.249 300.601 223.232 402.008C223.232 434.137 232.089 465.263 246.85 493.375L221.264 588.758L316.717 563.657C343.287 578.718 372.807 585.747 402.331 585.747C501.72 585.747 582.412 502.411 582.412 401.006C582.412 351.807 563.715 305.621 530.258 271.484H530.257ZM403.314 554.622C376.745 554.622 350.175 547.595 327.542 533.538L321.638 530.526L264.563 545.586L279.323 488.357L275.388 482.332C232.089 411.047 252.754 316.665 323.606 272.487C394.457 228.311 485.975 249.396 529.274 321.686C572.571 393.976 551.906 487.351 481.055 531.529C458.421 546.589 430.868 554.621 403.314 554.621V554.622ZM489.911 443.176L479.086 438.155C479.086 438.155 463.343 431.127 453.501 426.107C452.517 426.107 451.533 425.102 450.549 425.102C447.596 425.102 445.628 426.107 443.66 427.111C443.66 427.111 442.677 428.115 428.9 444.179C427.915 446.187 425.947 447.192 423.979 447.192H422.995C422.011 447.192 420.044 446.187 419.059 445.184L414.138 443.176C403.314 438.155 393.474 432.13 385.601 424.099C383.633 422.091 380.68 420.083 378.712 418.075C371.824 411.047 364.935 403.014 360.016 393.977L359.032 391.97C358.048 390.965 358.048 389.962 357.064 387.954C357.064 385.946 357.064 383.938 358.048 382.933C358.048 382.933 361.984 377.913 364.935 374.902C366.905 372.892 367.888 369.881 369.856 367.873C371.824 364.861 372.809 360.845 371.824 357.832C370.841 352.812 359.032 325.703 356.08 319.679C354.111 316.667 352.144 315.664 349.192 314.659H338.367C336.398 314.659 334.432 315.664 332.462 315.664L331.478 316.667C329.51 317.672 327.542 319.679 325.574 320.683C323.606 322.692 322.621 324.698 320.653 326.708C313.765 335.744 309.829 346.788 309.829 357.832C309.829 365.864 311.797 373.897 314.749 380.925L315.734 383.938C324.59 403.014 336.398 420.083 352.145 435.143L356.08 439.159C359.032 442.171 361.984 444.179 363.952 447.19C384.618 465.264 408.234 478.316 434.804 485.345C437.756 486.348 441.692 486.348 444.645 487.353H454.485C459.405 487.353 465.309 485.345 469.246 483.337C472.198 481.329 474.166 481.329 476.134 479.321L478.103 477.312C480.071 475.304 482.039 474.3 484.007 472.293C485.975 470.285 487.943 468.277 488.927 466.267C490.895 462.252 491.878 457.231 492.863 452.212V445.184C492.863 445.184 491.878 444.179 489.911 443.176V443.176Z" fill="white"/>
</g>
<defs>
<filter id="filter0_d_5_479" x="0" y="0" width="814" height="814" filterUnits="userSpaceOnUse" color-interpolation-filters="sRGB">
<feFlood flood-opacity="0" result="BackgroundImageFix"/>
<feColorMatrix in="SourceAlpha" type="matrix" values="0 0 0 0 0 0 0 0 0 0 0 0 0 0 0 0 0 0 127 0" result="hardAlpha"/>
<feOffset dy="4"/>
<feGaussianBlur stdDeviation="4.5"/>
<feComposite in2="hardAlpha" operator="out"/>
<feColorMatrix type="matrix" values="0 0 0 0 0 0 0 0 0 0 0 0 0 0 0 0 0 0 0.25 0"/>
<feBlend mode="normal" in2="BackgroundImageFix" result="effect1_dropShadow_5_479"/>
<feBlend mode="normal" in="SourceGraphic" in2="effect1_dropShadow_5_479" result="shape"/>
</filter>
</defs>
</svg>
